Coordinates
version=1
nRows=10
nColumns=46
inDegrees=yes

Units are S.I. units (second, meters, Newtons, ...)
Angles are in degrees.

endheader
time	pelvis_tilt	pelvis_list	pelvis_rotation	pelvis_tx	pelvis_ty	pelvis_tz	bb_angle	bb_tx	bb_ty	bb_tz	hip_flexion_r	hip_adduction_r	hip_rotation_r	knee_angle_r	knee_angle_r_beta	ankle_angle_r	subtalar_angle_r	mtp_angle_r	crank_angle_r	hip_flexion_l	hip_adduction_l	hip_rotation_l	knee_angle_l	knee_angle_l_beta	ankle_angle_l	subtalar_angle_l	mtp_angle_l	crank_angle_l	lumbar_extension	lumbar_bending	lumbar_rotation	arm_flex_r	arm_add_r	arm_rot_r	elbow_flex_r	pro_sup_r	wrist_flex_r	wrist_dev_r	arm_flex_l	arm_add_l	arm_rot_l	elbow_flex_l	pro_sup_l	wrist_flex_l	wrist_dev_l
      7.50500000	    -30.29844244	      5.36425800	     14.33023850	      0.39085050	      1.14945497	     -0.24320234	      0.00000000	      0.50000000	      0.00000000	      0.25000000	     32.86000433	    -13.92682140	     -8.65129699	     26.58058073	      0.46391865	     -6.12567300	      4.82284138	      0.00000000	      0.00000000	     89.34673841	      0.78511775	      0.88795924	    108.90961023	      1.90083129	    -11.04404580	     -0.55719939	      0.00000000	      0.00000000	    -60.64552191	      2.65743727	    -11.58351553	     31.97193327	    -16.77345062	      9.76055775	    107.31198572	     48.54474036	      0.00000000	      0.00000000	     45.63403333	    -37.41169021	     26.84400429	    104.10361598	     54.97920070	      0.00000000	      0.00000000
      7.51000000	    -30.55534138	      5.12432146	     14.75610250	      0.39070910	      1.15115535	     -0.24302260	      0.00000000	      0.50000000	      0.00000000	      0.25000000	     32.28128090	    -14.07429161	     -9.96369505	     26.25137156	      0.45817287	     -6.56068980	      6.09490226	      0.00000000	      0.00000000	     90.36194789	      0.99948963	      0.81451591	    108.38757770	      1.89172010	    -11.29891266	     -0.18908162	      0.00000000	      0.00000000	    -60.39967232	      3.09563439	    -13.69997743	     33.86197305	    -15.13069556	     11.99019014	    104.94039281	     48.47001948	      0.00000000	      0.00000000	     43.36585448	    -39.79107403	     24.33552843	    105.97600843	     54.91933182	      0.00000000	      0.00000000
      7.51500000	    -30.89648922	      4.72214959	     15.02641784	      0.39024795	      1.15293878	     -0.24274644	      0.00000000	      0.50000000	      0.00000000	      0.25000000	     32.00665940	    -13.93804574	    -11.01254878	     26.13311050	      0.45610882	     -7.22236292	      6.61020461	      0.00000000	      0.00000000	     91.38239639	      1.28043772	      1.03203509	    107.72316387	      1.88012389	    -11.45343395	      0.01729884	      0.00000000	      0.00000000	    -60.21823431	      3.32275372	    -13.70836246	     34.07858334	    -14.91411663	     11.98357566	    104.80866111	     48.44902248	      0.00000000	      0.00000000	     43.65255277	    -39.91612793	     24.22071880	    106.02798994	     54.90450743	      0.00000000	      0.00000000
      7.52000000	    -31.14424814	      4.21269747	     15.33665120	      0.38981167	      1.15507985	     -0.24275031	      0.00000000	      0.50000000	      0.00000000	      0.25000000	     31.75811315	    -13.76591535	    -12.16977484	     26.25186455	      0.45818147	     -7.70212628	      7.22425064	      0.00000000	      0.00000000	     92.14390094	      1.52700713	      1.30790989	    106.91254941	      1.86597600	    -11.40393707	      0.47445834	      0.00000000	      0.00000000	    -60.10563720	      3.71686962	    -13.72320918	     34.42863596	    -14.64401214	     11.98882339	    104.45438635	     48.39091124	      0.00000000	      0.00000000	     43.84940539	    -40.11496613	     24.21695067	    106.12786970	     54.91162755	      0.00000000	      0.00000000
      7.52500000	    -31.19872374	      3.67451102	     15.66734828	      0.38942259	      1.15768352	     -0.24302106	      0.00000000	      0.50000000	      0.00000000	      0.25000000	     31.44537140	    -13.60356021	    -13.46510628	     26.64171505	      0.46498565	     -8.04433387	      7.97172431	      0.00000000	      0.00000000	     92.50239951	      1.86049563	      1.66700528	    105.96440268	      1.84942772	    -10.85585634	      1.11110647	      0.00000000	      0.00000000	    -60.11593699	      4.22492608	    -13.97861556	     35.17683872	    -14.07868938	     12.26019416	    103.34282927	     48.24016422	      0.00000000	      0.00000000	     43.80733376	    -40.85829418	     24.25598892	    106.31171594	     54.93332179	      0.00000000	      0.00000000
      7.53000000	    -31.41469089	      3.28507505	     15.65525947	      0.38894973	      1.16035218	     -0.24295405	      0.00000000	      0.50000000	      0.00000000	      0.25000000	     31.57158919	    -13.38898025	    -13.95429570	     27.27410275	      0.47602289	     -8.66996683	      7.95352257	      0.00000000	      0.00000000	     92.73595981	      2.03128223	      1.92385234	    104.83372603	      1.82969369	    -10.18084380	      1.32651373	      0.00000000	      0.00000000	    -60.14582989	      4.32454412	    -13.92826484	     35.64307071	    -13.95166929	     12.34210858	    103.13359256	     48.21232309	      0.00000000	      0.00000000	     44.05843642	    -41.11163655	     24.05145223	    106.45747658	     54.92543354	      0.00000000	      0.00000000
      7.53500000	    -31.58421473	      2.78755059	     15.67496196	      0.38850021	      1.16317709	     -0.24305606	      0.00000000	      0.50000000	      0.00000000	      0.25000000	     31.81107880	    -13.09805745	    -14.44851683	     28.16199085	      0.49151946	     -9.12994832	      7.78164246	      0.00000000	      0.00000000	     92.69779810	      2.19124906	      2.28794503	    103.52997011	      1.80693885	     -8.92410853	      2.21713113	      0.00000000	      0.00000000	    -60.08227118	      4.79972894	    -16.16994263	     38.13272144	    -12.05487764	     14.88098676	    100.03263725	     48.08743662	      0.00000000	      0.00000000	     40.59269380	    -44.12725755	     20.21493318	    108.89760580	     54.83601617	      0.00000000	      0.00000000
      7.54000000	    -31.75660037	      2.32546133	     15.53384479	      0.38824051	      1.16603713	     -0.24330804	      0.00000000	      0.50000000	      0.00000000	      0.25000000	     32.24210710	    -12.78993673	    -14.70571005	     29.27642193	      0.51096996	     -9.75537302	      7.31854484	      0.00000000	      0.00000000	     92.39060105	      2.26197595	      2.55040295	    102.05584595	      1.78121053	     -7.51574280	      2.20751543	      0.00000000	      0.00000000	    -60.15699198	      4.90473382	    -15.93839746	     38.60335433	    -12.03150485	     14.88308378	     99.87733568	     48.06287230	      0.00000000	      0.00000000	     40.72005536	    -44.19384519	     20.03524174	    108.94271899	     54.81503802	      0.00000000	      0.00000000
      7.54500000	    -31.92210012	      1.92007047	     15.25732581	      0.38806473	      1.16877826	     -0.24369493	      0.00000000	      0.50000000	      0.00000000	      0.25000000	     32.87949897	    -12.49823469	    -14.71760281	     30.72505693	      0.53625341	    -10.29249870	      6.29788001	      0.00000000	      0.00000000	     91.85237756	      2.31041091	      2.85704435	    100.44611364	      1.75311540	     -5.72170936	      2.48604921	      0.00000000	      0.00000000	    -60.21469308	      4.94216024	    -15.76427797	     39.17673352	    -12.04270941	     15.03552998	     99.48628019	     48.01469314	      0.00000000	      0.00000000	     40.77478687	    -44.28784024	     19.83423597	    108.97856220	     54.79003193	      0.00000000	      0.00000000
      7.55000000	    -32.06123624	      1.56294755	     14.89323399	      0.38801828	      1.17152232	     -0.24406742	      0.00000000	      0.50000000	      0.00000000	      0.25000000	     33.64207302	    -12.21566847	    -14.59824136	     32.40146398	      0.56551223	    -10.95191749	      5.10374064	      0.00000000	      0.00000000	     91.05865653	      2.25559646	      3.11281060	     98.66524958	      1.72203346	     -3.78761597	      2.66264279	      0.00000000	      0.00000000	    -60.30865917	      4.93126921	    -15.56527990	     39.76858618	    -12.04012874	     15.34676877	     99.01523042	     47.96885318	      0.00000000	      0.00000000	     40.74097604	    -44.40834433	     19.60838439	    108.98501386	     54.75934090	      0.00000000	      0.00000000
